<svg id="Ebene_1" data-name="Ebene 1" xmlns="http://www.w3.org/2000/svg" viewBox="0 0 416.025 512" width="16" height="16"><path fill="#888" d="M432,304c0,114.9-93.1,208-208,208S16,418.9,16,304A207.9,207.9,0,0,1,192,98.5V64H164a12.035,12.035,0,0,1-12-12V12A12.035,12.035,0,0,1,164,0H284a12.035,12.035,0,0,1,12,12V52a12.035,12.035,0,0,1-12,12H256V98.5a206.733,206.733,0,0,1,99.7,44.6l27.5-27.5a12.011,12.011,0,0,1,17,0l28.3,28.3a12.011,12.011,0,0,1,0,17l-29.4,29.4-.6.6A205.921,205.921,0,0,1,432,304Z" transform="translate(-16 0)"/><rect x="176" y="176.5" width="64" height="175.5" rx="12"/><circle cx="208.013" cy="303.367" r="168.45" fill="#000"/><rect fill="#888" x="176" y="176.5" width="64" height="175.5" rx="17.033"/></svg>